<svg xmlns="http://www.w3.org/2000/svg" xmlns:xlink="http://www.w3.org/1999/xlink" id="Layer_1" x="0" y="0" version="1.1" viewBox="0 0 94 96.6" xml:space="preserve" style="enable-background:new 0 0 94 96.6"><style type="text/css">.st0{fill:#008ee9}.st1{fill:#2bbaf3}.st2{fill:#b0e3fb}.st3{fill:#0054ad}</style><g><g><path d="M59.9,74.8l-32.7,8.7c-0.6,0.2-1.3-0.2-1.5-0.9L12.9,34.9c-0.2-0.6,0.2-1.3,0.9-1.5l32.7-8.7 c0.6-0.2,1.3,0.2,1.5,0.9l12.8,47.8C60.9,74,60.5,74.6,59.9,74.8z" class="st0"/></g><rect width="5.3" height="2" x="20.1" y="40.5" class="st1" transform="matrix(0.966 -0.2586 0.2586 0.966 -9.9691 7.2906)"/><polygon points="29.6 49.1 22.5 51 27.4 69.2 29.6 68.6" class="st1"/><g><polygon points="29.6 34.9 29.5 34.6 18.9 37.5 19.4 39.4 29.6 36.6" class="st1"/></g><path d="M35.1,75.4c-0.7-0.2-1.1-0.9-0.9-1.6l0.2-0.8l-5.9,1.6l1.2,4.4l9.4-2.5L35.1,75.4z" class="st1"/><g><path d="M67.1,84l-31.5-8.5c-1-0.3-1.5-1.3-1.3-2.2l12.6-46.6c0.3-1,1.3-1.5,2.2-1.3l31.5,8.5c1,0.3,1.5,1.3,1.3,2.2 L69.3,82.8C69.1,83.7,68.1,84.3,67.1,84z" class="st0"/></g><polygon points="65.8 35.4 65.8 55.1 71.4 56.6 76.4 38.2" class="st1"/><polygon points="65.8 58.5 65.8 60.7 70.2 61.8 70.7 59.8" class="st1"/><polygon points="54.7 72.4 39.6 72.4 39.5 72.7 65.2 79.6 66.3 75.5" class="st1"/><g><path d="M64.5,72.4H31c-0.8,0-1.4-0.6-1.4-1.4V21.8c0-0.8,0.6-1.4,1.4-1.4h33.5c0.8,0,1.4,0.6,1.4,1.4V71 C65.8,71.8,65.2,72.4,64.5,72.4z" class="st0"/></g><path d="M9.5,38.3l1.1,0.6c0.2,0.1,0.2,0.4,0,0.4L9.5,40c0,0-0.1,0.1-0.1,0.1l-0.6,1.1c-0.1,0.2-0.4,0.2-0.4,0 l-0.6-1.1c0,0-0.1-0.1-0.1-0.1l-1.1-0.6c-0.2-0.1-0.2-0.4,0-0.4l1.1-0.6c0,0,0.1-0.1,0.1-0.1l0.6-1.1c0.1-0.2,0.4-0.2,0.4,0 l0.6,1.1C9.4,38.3,9.5,38.3,9.5,38.3z" class="st2"/><path d="M24,18.9l1.1,0.6c0.2,0.1,0.2,0.4,0,0.4L24,20.5c0,0-0.1,0.1-0.1,0.1l-0.6,1.1c-0.1,0.2-0.4,0.2-0.4,0 l-0.6-1.1c0,0-0.1-0.1-0.1-0.1l-1.1-0.6c-0.2-0.1-0.2-0.4,0-0.4l1.1-0.6c0,0,0.1-0.1,0.1-0.1l0.6-1.1c0.1-0.2,0.4-0.2,0.4,0 l0.6,1.1C24,18.8,24,18.8,24,18.9z" class="st2"/><path d="M41.4,12.2l1.1,0.6c0.2,0.1,0.2,0.4,0,0.4l-1.1,0.6c0,0-0.1,0.1-0.1,0.1l-0.6,1.1c-0.1,0.2-0.4,0.2-0.4,0 L39.7,14c0,0-0.1-0.1-0.1-0.1l-1.1-0.6c-0.2-0.1-0.2-0.4,0-0.4l1.1-0.6c0,0,0.1-0.1,0.1-0.1l0.6-1.1c0.1-0.2,0.4-0.2,0.4,0l0.6,1.1 C41.4,12.2,41.4,12.2,41.4,12.2z" class="st2"/><path d="M74.8,24.4l1.1,0.6c0.2,0.1,0.2,0.4,0,0.4L74.8,26c0,0-0.1,0.1-0.1,0.1l-0.6,1.1c-0.1,0.2-0.4,0.2-0.4,0 L73,26.1c0,0-0.1-0.1-0.1-0.1l-1.1-0.6c-0.2-0.1-0.2-0.4,0-0.4l1.1-0.6c0,0,0.1-0.1,0.1-0.1l0.6-1.1c0.1-0.2,0.4-0.2,0.4,0l0.6,1.1 C74.7,24.3,74.7,24.4,74.8,24.4z" class="st2"/><path d="M87.8,39.7l1.1,0.6c0.2,0.1,0.2,0.4,0,0.4l-1.1,0.6c0,0-0.1,0.1-0.1,0.1l-0.6,1.1c-0.1,0.2-0.4,0.2-0.4,0 L86,41.5c0,0-0.1-0.1-0.1-0.1l-1.1-0.6c-0.2-0.1-0.2-0.4,0-0.4l1.1-0.6c0,0,0.1-0.1,0.1-0.1l0.6-1.1c0.1-0.2,0.4-0.2,0.4,0l0.6,1.1 C87.7,39.6,87.7,39.7,87.8,39.7z" class="st2"/><circle cx="17.1" cy="26.3" r="1.1" class="st2"/><circle cx="55.6" cy="15.8" r="1.1" class="st2"/><circle cx="69" cy="16.4" r="1.1" class="st2"/><circle cx="82.6" cy="54.2" r="1.1" class="st2"/><circle cx="11.8" cy="46.4" r="1.1" class="st2"/><rect width="26.6" height="4.2" x="34.7" y="24.4" class="st1"/><g><path d="M64.5,73.1H30.9c-1.1,0-2-0.9-2-2V21.8c0-1.1,0.9-2,2-2h33.6c1.1,0,2,0.9,2,2v49.3 C66.5,72.2,65.6,73.1,64.5,73.1z M30.9,21.1c-0.4,0-0.6,0.3-0.6,0.6v49.3c0,0.4,0.3,0.6,0.6,0.6h33.6c0.4,0,0.6-0.3,0.6-0.6V21.8 c0-0.4-0.3-0.6-0.6-0.6H30.9z" class="st3"/></g><g><rect width="26.6" height="2.1" x="34.7" y="32.8" class="st1"/></g><rect width="26.6" height="2.1" x="34.7" y="37" class="st1"/><rect width="19.5" height="2.1" x="34.7" y="41.3" class="st1"/><rect width="26.6" height="19" x="34.7" y="48.2" class="st1"/><g><path d="M43.8,78.5l-16.6,4.5c-0.3,0.1-0.7-0.1-0.8-0.5L13.6,34.8c0-0.2,0-0.3,0.1-0.5c0.1-0.1,0.2-0.3,0.4-0.3 l14.9-4v-1.4l-15.2,4.1c-0.5,0.1-0.9,0.5-1.2,0.9c-0.3,0.5-0.3,1-0.2,1.5l12.8,47.6c0.2,0.9,1,1.5,1.9,1.5c0.2,0,0.3,0,0.5-0.1 l18.8-5L43.8,78.5z" class="st3"/></g><g><path d="M81.3,33.4l-14.8-4v1.4l14.4,3.9c0.3,0.1,0.6,0.4,0.5,0.8L68.5,83.1c0,0.2-0.2,0.3-0.3,0.4 c-0.2,0.1-0.3,0.1-0.5,0.1l-32.5-8.7c-0.3-0.1-0.6-0.4-0.5-0.8l0.3-0.9h-1.4l-0.2,0.6c-0.3,1,0.3,2.1,1.4,2.4l32.5,8.7 c0.2,0,0.3,0.1,0.5,0.1c0.3,0,0.7-0.1,1-0.3c0.5-0.3,0.8-0.7,0.9-1.2l12.8-47.6C82.9,34.8,82.3,33.7,81.3,33.4z" class="st3"/></g></g></svg>